<?xml version="1.0" encoding="iso-8859-1"?>
<!-- Generator: Adobe Illustrator 22.0.0, SVG Export Plug-In . SVG Version: 6.00 Build 0)  -->
<svg xmlns="http://www.w3.org/2000/svg" xmlns:xlink="http://www.w3.org/1999/xlink" version="1.1" x="0px" y="0px" viewBox="0 0 59 60" style="enable-background:new 0 0 59 60;" xml:space="preserve" width="512" height="512">
<g id="_x33_2-Car_Parking">
	<path style="fill:#28384C;" d="M8,33c-0.552,0-1-0.447-1-1V19c0-0.553,0.448-1,1-1s1,0.447,1,1v13C9,32.553,8.552,33,8,33z"/>
	<path style="fill:#28384C;" d="M8,60c-0.552,0-1-0.447-1-1v-7c0-0.553,0.448-1,1-1s1,0.447,1,1v7C9,59.553,8.552,60,8,60z"/>
	<path style="fill:#DD352E;" d="M58,25c-6.68-1.047-11.2-1-11.2-1c-12.363,0-28.617,4.831-36.426,7.414   C7.285,32.436,4.191,32.638,1,32l0,0c0,0,1.276,4.34-0.041,6.8c-0.903,1.688-1.116,3.666-0.857,5.563C0.572,47.794,1.766,52,4.8,52   H14c0-6.075,4.925-11,11-11c6.075,0,11,4.925,11,11l22,0V25z"/>
	<path style="fill:#B02721;" d="M58,36l-13.411,0c-0.5,2.412-0.789,5.122-0.789,8s0.289,5.588,0.789,8L58,52V36z"/>
	<path style="fill:#C6E2F7;" d="M58,29.179C51.681,28.11,47.222,28,46.894,28c-4.96,0-10.626,0.853-16.094,2c0,0,6,1.833,6,4   c0,2.167,5,2,5,2L58,36V29.179z"/>
	<path style="fill:#28384C;" d="M53,7c-0.552,0-1-0.447-1-1c0-1.103-0.897-2-2-2c-0.552,0-1-0.447-1-1s0.448-1,1-1   c1.064,0,2.032,0.418,2.75,1.098C53.774,1.252,55.744,0,58,0c0.552,0,1,0.447,1,1s-0.448,1-1,1c-2.206,0-4,1.794-4,4   C54,6.553,53.552,7,53,7z"/>
	<path style="fill:#366DB6;" d="M14,19H2c-1.105,0-2-0.895-2-2V3c0-1.105,0.895-2,2-2h12c1.105,0,2,0.895,2,2v14   C16,18.105,15.105,19,14,19z"/>
	<path style="fill:#FFFFFF;" d="M6,15c-0.552,0-1-0.447-1-1V6c0-0.553,0.448-1,1-1s1,0.447,1,1v8C7,14.553,6.552,15,6,15z"/>
	<path style="fill:#FFFFFF;" d="M9,11H6c-0.552,0-1-0.447-1-1V6c0-0.553,0.448-1,1-1h3c1.654,0,3,1.346,3,3S10.654,11,9,11z M7,9h2   c0.552,0,1-0.448,1-1S9.552,7,9,7H7V9z"/>
	<circle style="fill:#28384C;" cx="25" cy="52" r="7"/>
	<path style="fill:#FFFFFF;" d="M51,41h-3c-0.552,0-1-0.447-1-1s0.448-1,1-1h3c0.552,0,1,0.447,1,1S51.552,41,51,41z"/>
	<circle style="fill:#B02721;" cx="13" cy="38" r="3"/>
	<rect x="23" y="50" style="fill:#E7ECED;" width="4" height="4"/>
</g>

</svg>
